HIERARCHY
ROOT Hips
{
  OFFSET 377.763 88.2609 174.383
  CHANNELS 6 Xposition Yposition Zposition Zrotation Xrotation Yrotation
  JOINT RightUpLeg
  {
    OFFSET -9.30536 -1.56319 -0.0308412
    CHANNELS 3 Zrotation Xrotation Yrotation
    JOINT RightLeg
    {
      OFFSET -0.0509473 -41.8867 0.0408735
      CHANNELS 3 Zrotation Xrotation Yrotation
      JOINT RightFoot
      {
        OFFSET -0.135761 -42.7852 -0.897951
        CHANNELS 3 Zrotation Xrotation Yrotation
        End Site
        {
          OFFSET 0 -7.69 17.5
        }
      }
    }
  }
  JOINT LeftUpLeg
  {
    OFFSET 9.25165 -1.62789 -0.00729124
    CHANNELS 3 Zrotation Xrotation Yrotation
    JOINT LeftLeg
    {
      OFFSET 0.024936 -41.8804 0.00207043
      CHANNELS 3 Zrotation Xrotation Yrotation
      JOINT LeftFoot
      {
        OFFSET 0.245063 -40.7505 0.529473
        CHANNELS 3 Zrotation Xrotation Yrotation
        End Site
        {
          OFFSET 0 -7.69 17.5
        }
      }
    }
  }
  JOINT Spine
  {
    OFFSET 0.0381636 14.2969 0.0214663
    CHANNELS 3 Zrotation Xrotation Yrotation
    JOINT Spine1
    {
      OFFSET 0.0273681 9.71499 0.0100001
      CHANNELS 3 Zrotation Xrotation Yrotation
      JOINT Spine2
      {
        OFFSET 0.029022 10.1215 -0.000399631
        CHANNELS 3 Zrotation Xrotation Yrotation
        JOINT Spine3
        {
          OFFSET 0.0290531 9.71322 0.0107928
          CHANNELS 3 Zrotation Xrotation Yrotation
          JOINT Neck
          {
            OFFSET 0.0830829 10.3832 0.0498053
            CHANNELS 3 Zrotation Xrotation Yrotation
            JOINT Head
            {
              OFFSET 0.0700972 9.47827 0.0499309
              CHANNELS 3 Zrotation Xrotation Yrotation
              End Site
              {
                OFFSET 0 15.95 0
              }
            }
          }
          JOINT RightShoulder
          {
            OFFSET -3.16088 6.93633 0.0290789
            CHANNELS 3 Zrotation Xrotation Yrotation
            JOINT RightArm
            {
              OFFSET -12.7509 0.028765 0.0682708
              CHANNELS 3 Zrotation Xrotation Yrotation
              JOINT RightForeArm
              {
                OFFSET -26.5067 -0.0728143 0.13822
                CHANNELS 3 Zrotation Xrotation Yrotation
                JOINT RightHand
                {
                  OFFSET -25.9897 -0.0664148 0.00141744
                  CHANNELS 3 Zrotation Xrotation Yrotation
                  JOINT RightHandThumb1
                  {
                    OFFSET -2.48905 0.190105 3.12053
                    CHANNELS 3 Zrotation Xrotation Yrotation
                    JOINT RightHandThumb2
                    {
                      OFFSET -3.68274 0 0
                      CHANNELS 3 Zrotation Xrotation Yrotation
                      JOINT RightHandThumb3
                      {
                        OFFSET -2.55832 0 0
                        CHANNELS 3 Zrotation Xrotation Yrotation
                        End Site
                        {
                          OFFSET -2.194 0 0
                        }
                      }
                    }
                  }
                  JOINT RightInHandIndex
                  {
                    OFFSET -3.22368 0.508421 1.97842
                    CHANNELS 3 Zrotation Xrotation Yrotation
                    JOINT RightHandIndex1
                    {
                      OFFSET -5.21684 -0.091368 0.999158
                      CHANNELS 3 Zrotation Xrotation Yrotation
                      JOINT RightHandIndex2
                      {
                        OFFSET -3.61937 0 0
                        CHANNELS 3 Zrotation Xrotation Yrotation
                        JOINT RightHandIndex3
                        {
                          OFFSET -2.0521 0 0
                          CHANNELS 3 Zrotation Xrotation Yrotation
                          End Site
                          {
                            OFFSET -1.805 0 0
                          }
                        }
                      }
                    }
                  }
                  JOINT RightInHandMiddle
                  {
                    OFFSET -3.38211 0.517263 0.756737
                    CHANNELS 3 Zrotation Xrotation Yrotation
                    JOINT RightHandMiddle1
                    {
                      OFFSET -5.17411 -0.084 0.313895
                      CHANNELS 3 Zrotation Xrotation Yrotation
                      JOINT RightHandMiddle2
                      {
                        OFFSET -3.94947 0 0
                        CHANNELS 3 Zrotation Xrotation Yrotation
                        JOINT RightHandMiddle3
                        {
                          OFFSET -2.47579 0 0
                          CHANNELS 3 Zrotation Xrotation Yrotation
                          End Site
                          {
                            OFFSET -1.975 0 0
                          }
                        }
                      }
                    }
                  }
                  JOINT RightInHandRing
                  {
                    OFFSET -3.36516 0.537895 -0.128947
                    CHANNELS 3 Zrotation Xrotation Yrotation
                    JOINT RightHandRing1
                    {
                      OFFSET -4.63474 -0.022105 -0.478947
                      CHANNELS 3 Zrotation Xrotation Yrotation
                      JOINT RightHandRing2
                      {
                        OFFSET -3.44238 0 0
                        CHANNELS 3 Zrotation Xrotation Yrotation
                        JOINT RightHandRing3
                        {
                          OFFSET -2.3881 0 0
                          CHANNELS 3 Zrotation Xrotation Yrotation
                          End Site
                          {
                            OFFSET -1.857 0 0
                          }
                        }
                      }
                    }
                  }
                  JOINT RightInHandPinky
                  {
                    OFFSET -3.16105 0.469368 -1.20179
                    CHANNELS 3 Zrotation Xrotation Yrotation
                    JOINT RightHandPinky1
                    {
                      OFFSET -4.14105 -0.022105 -1.09053
                      CHANNELS 3 Zrotation Xrotation Yrotation
                      JOINT RightHandPinky2
                      {
                        OFFSET -2.75653 0 0
                        CHANNELS 3 Zrotation Xrotation Yrotation
                        JOINT RightHandPinky3
                        {
                          OFFSET -1.74189 0 0
                          CHANNELS 3 Zrotation Xrotation Yrotation
                          End Site
                          {
                            OFFSET -1.645 0 0
                          }
                        }
                      }
                    }
                  }
                }
              }
            }
          }
          JOINT LeftShoulder
          {
            OFFSET 3.23403 6.91572 -0.0126821
            CHANNELS 3 Zrotation Xrotation Yrotation
            JOINT LeftArm
            {
              OFFSET 12.8488 -0.0444641 -0.0528339
              CHANNELS 3 Zrotation Xrotation Yrotation
              JOINT LeftForeArm
              {
                OFFSET 26.4942 -0.0237746 -0.09002
                CHANNELS 3 Zrotation Xrotation Yrotation
                JOINT LeftHand
                {
                  OFFSET 25.9989 -0.00653758 -0.026747
                  CHANNELS 3 Zrotation Xrotation Yrotation
                  JOINT LeftHandThumb1
                  {
                    OFFSET 2.48905 0.190105 3.12053
                    CHANNELS 3 Zrotation Xrotation Yrotation
                    JOINT LeftHandThumb2
                    {
                      OFFSET 3.68274 0 0
                      CHANNELS 3 Zrotation Xrotation Yrotation
                      JOINT LeftHandThumb3
                      {
                        OFFSET 2.55832 0 0
                        CHANNELS 3 Zrotation Xrotation Yrotation
                        End Site
                        {
                          OFFSET 2.194 0 0
                        }
                      }
                    }
                  }
                  JOINT LeftInHandIndex
                  {
                    OFFSET 3.22368 0.508421 1.97842
                    CHANNELS 3 Zrotation Xrotation Yrotation
                    JOINT LeftHandIndex1
                    {
                      OFFSET 5.21684 -0.091368 0.999158
                      CHANNELS 3 Zrotation Xrotation Yrotation
                      JOINT LeftHandIndex2
                      {
                        OFFSET 3.61937 0 0
                        CHANNELS 3 Zrotation Xrotation Yrotation
                        JOINT LeftHandIndex3
                        {
                          OFFSET 2.0521 0 0
                          CHANNELS 3 Zrotation Xrotation Yrotation
                          End Site
                          {
                            OFFSET 1.805 0 0
                          }
                        }
                      }
                    }
                  }
                  JOINT LeftInHandMiddle
                  {
                    OFFSET 3.38211 0.517263 0.756737
                    CHANNELS 3 Zrotation Xrotation Yrotation
                    JOINT LeftHandMiddle1
                    {
                      OFFSET 5.17411 -0.084 0.313895
                      CHANNELS 3 Zrotation Xrotation Yrotation
                      JOINT LeftHandMiddle2
                      {
                        OFFSET 3.94947 0 0
                        CHANNELS 3 Zrotation Xrotation Yrotation
                        JOINT LeftHandMiddle3
                        {
                          OFFSET 2.47579 0 0
                          CHANNELS 3 Zrotation Xrotation Yrotation
                          End Site
                          {
                            OFFSET 1.975 0 0
                          }
                        }
                      }
                    }
                  }
                  JOINT LeftInHandRing
                  {
                    OFFSET 3.36516 0.537895 -0.128947
                    CHANNELS 3 Zrotation Xrotation Yrotation
                    JOINT LeftHandRing1
                    {
                      OFFSET 4.63474 -0.022105 -0.478947
                      CHANNELS 3 Zrotation Xrotation Yrotation
                      JOINT LeftHandRing2
                      {
                        OFFSET 3.44238 0 0
                        CHANNELS 3 Zrotation Xrotation Yrotation
                        JOINT LeftHandRing3
                        {
                          OFFSET 2.3881 0 0
                          CHANNELS 3 Zrotation Xrotation Yrotation
                          End Site
                          {
                            OFFSET 1.857 0 0
                          }
                        }
                      }
                    }
                  }
                  JOINT LeftInHandPinky
                  {
                    OFFSET 3.16105 0.469368 -1.20179
                    CHANNELS 3 Zrotation Xrotation Yrotation
                    JOINT LeftHandPinky1
                    {
                      OFFSET 4.14105 -0.022105 -1.09053
                      CHANNELS 3 Zrotation Xrotation Yrotation
                      JOINT LeftHandPinky2
                      {
                        OFFSET 2.75653 0 0
                        CHANNELS 3 Zrotation Xrotation Yrotation
                        JOINT LeftHandPinky3
                        {
                          OFFSET 1.74189 0 0
                          CHANNELS 3 Zrotation Xrotation Yrotation
                          End Site
                          {
                            OFFSET 1.645 0 0
                          }
                        }
                      }
                    }
                  }
                }
              }
            }
          }
        }
      }
    }
  }
}
MOTION
Frames:	6
Frame Time:	0.00833333
377.763 88.2609 174.383 30.2386 12.1885 -70.6777 -26.6829 -58.8345 -32.1207 -0.856894 23.504 -5.51261 7.98907 8.02353 26.6068 14.7881 -52.9613 2.76857 2.45688 31.2368 3.13663 -13.9254 -8.87734 -15.8064 -7.48559 10.2393 14.9621 -1.62637 2.76117 3.59753 -2.71586 4.50551 5.85355 -0.335968 -0.308726 -0.423741 -0.336389 -0.319825 -0.422236 -6.43475 -5.98515 -7.44243 0.586413 -11.3353 22.8421 67.7614 -2.84095 51.7319 18.424 -59.3853 9.52117 15.6915 -15.6298 -18.6105 28.184 10.7294 19.1592 1.48813e-14 1.11319e-14 -10 2.092e-14 8.74653e-15 -10 -3.18055e-15 1.59028e-15 -1.59028e-15 19.9818 0.871897 2.3964 24 6.95746e-15 4.77083e-15 20 4.37326e-15 4.13472e-14 -3.18055e-15 1.59028e-15 -1.59028e-15 20 1.59028e-15 -1.59028e-15 24 1.78906e-15 -3.18055e-15 20 7.95139e-16 4.45278e-14 -3.18055e-15 1.59028e-15 -1.59028e-15 19.9748 -1.02565 -2.81938 24 9.54166e-15 1.90833e-14 20 1.90833e-14 3.49861e-14 -3.18055e-15 1.59028e-15 -1.59028e-15 19.7815 -3.00948 -8.30515 24 9.93923e-15 2.22639e-14 20 6.36111e-15 3.49861e-14 7.83995 -11.5878 -29.0634 -47.1773 25.5309 -66.6273 14.5684 -64.588 14.033 -27.2381 -17.3921 10.1046 -28.184 10.7294 -19.1592 -1.39725e-14 -3.18055e-15 10 -2.52761e-14 -3.18055e-15 10 -1.59028e-15 -3.18055e-15 -6.36111e-15 -19.9818 0.871897 -2.3964 -24 -3.57812e-15 -3.18055e-15 -20 -3.97569e-15 1.90833e-14 -1.59028e-15 -3.18055e-15 -6.36111e-15 -20 4.77083e-15 1.90833e-14 -24 0 6.36111e-15 -20 -1.59028e-15 -6.36111e-15 -1.59028e-15 -3.18055e-15 -6.36111e-15 -19.9748 -1.02565 2.81938 -24 3.18055e-15 6.36111e-15 -20 -4.77083e-15 -3.18055e-15 -1.59028e-15 -3.18055e-15 -6.36111e-15 -19.7815 -3.00948 8.30515 -24 -1.68967e-15 -3.18055e-15 -20 -6.36111e-15 6.36111e-15 
377.763 88.2609 174.377 30.1937 12.1708 -70.6747 -26.5775 -58.7885 -32.0056 -0.878796 23.4736 -5.46474 7.99392 8.02482 26.5464 14.842 -52.9095 2.85492 2.40909 31.2762 3.18548 -13.9175 -8.90977 -15.902 -7.43426 10.244 14.861 -1.61518 2.76124 3.57266 -2.69739 4.50011 5.81493 -0.335928 -0.308727 -0.416214 -0.336347 -0.319825 -0.414715 -6.45843 -5.95844 -7.30925 0.57013 -11.1226 22.753 67.781 -2.9492 51.6326 19.9833 -59.8262 11.2389 15.6625 -15.5865 -18.4916 28.184 10.7294 19.1592 3.08454e-14 1.00883e-14 -10 4.02977e-14 8.74653e-15 -10 -9.54166e-15 4.77083e-15 -1.59028e-15 19.9818 0.871897 2.3964 24 2.5842e-15 2.54444e-14 20 6.75868e-15 4.13472e-14 -9.54166e-15 4.77083e-15 -1.59028e-15 20 -1.59028e-15 3.18055e-15 24 1.19271e-15 1.59028e-14 20 7.95139e-15 6.67916e-14 -9.54166e-15 4.77083e-15 -1.59028e-15 19.9748 -1.02565 -2.81938 24 8.34896e-15 1.59028e-14 20 1.19271e-14 4.45278e-14 -9.54166e-15 4.77083e-15 -1.59028e-15 19.7815 -3.00948 -8.30515 24 0 1.27222e-14 20 9.54166e-15 2.8625e-14 7.82789 -11.5556 -29.1325 -47.0838 25.5557 -66.7154 14.659 -63.8303 14.0682 -27.1384 -17.3566 10.1192 -28.184 10.7294 -19.1592 -3.22962e-15 0 10 -2.20465e-14 -3.18055e-15 10 -7.95139e-15 3.18055e-15 -0 -19.9818 0.871897 -2.3964 -24 2.38542e-15 -1.59028e-14 -20 -2.38542e-15 -1.59028e-14 -7.95139e-15 3.18055e-15 -0 -20 0 2.54444e-14 -24 -7.95139e-16 -9.54166e-15 -20 1.59028e-15 -9.54166e-15 -7.95139e-15 3.18055e-15 -0 -19.9748 -1.02565 2.81938 -24 -3.57812e-15 3.18055e-15 -20 -4.77083e-15 -0 -7.95139e-15 3.18055e-15 -0 -19.7815 -3.00948 8.30515 -24 8.10048e-15 -0 -20 -4.77083e-15 -9.54166e-15 
377.76 88.2609 174.37 30.1401 12.1572 -70.6849 -26.4357 -58.7408 -31.8582 -0.904148 23.447 -5.40732 7.99989 8.01522 26.4784 14.9278 -52.8425 2.95512 2.34478 31.3257 3.25095 -13.9149 -8.95179 -16.0001 -7.38151 10.2511 14.7603 -1.60331 2.75841 3.54796 -2.6781 4.49457 5.77665 -0.338385 -0.308727 -0.408159 -0.338794 -0.317865 -0.406655 -6.48271 -5.92809 -7.16676 0.565508 -10.906 22.6623 67.8188 -3.06769 51.5402 21.702 -60.1652 13.1384 15.5805 -15.6135 -18.3956 28.184 10.7294 19.1592 2.05497e-14 6.64686e-15 -10 2.3729e-14 6.36111e-15 -10 6.36111e-15 -1.59028e-15 -1.59028e-15 19.9818 0.871897 2.3964 24 2.18663e-15 1.59028e-15 20 -2.38542e-15 1.90833e-14 6.36111e-15 -1.59028e-15 -1.59028e-15 20 -7.95139e-16 -1.59028e-15 24 5.96354e-15 -0 20 3.18055e-15 3.02153e-14 6.36111e-15 -1.59028e-15 -1.59028e-15 19.9748 -1.02565 -2.81938 24 5.76476e-15 1.59028e-14 20 8.74653e-15 2.54444e-14 6.36111e-15 -1.59028e-15 -1.59028e-15 19.7815 -3.00948 -8.30515 24 -7.95139e-16 1.27222e-14 20 -7.95139e-16 2.22639e-14 7.80965 -11.535 -29.2089 -46.9809 25.5921 -66.8001 14.7689 -63.047 14.1304 -27.0382 -17.2614 10.1572 -28.184 10.7294 -19.1592 -4.91207e-15 9.54166e-15 10 -1.44656e-14 -9.54166e-15 10 -1.27222e-14 -3.18055e-15 -0 -19.9818 0.871897 -2.3964 -24 -1.59028e-15 -1.59028e-14 -20 -3.97569e-15 9.54166e-15 -1.27222e-14 -3.18055e-15 -0 -20 -9.54166e-15 3.18055e-15 -24 7.95139e-16 -3.18055e-15 -20 -1.59028e-15 3.18055e-15 -1.27222e-14 -3.18055e-15 -0 -19.9748 -1.02565 2.81938 -24 -1.19271e-15 6.36111e-15 -20 0 3.18055e-15 -1.27222e-14 -3.18055e-15 -0 -19.7815 -3.00948 8.30515 -24 3.35449e-15 3.18055e-15 -20 -4.77083e-15 9.54166e-15 
377.753 88.2609 174.367 30.1161 12.1541 -70.7054 -26.3121 -58.7271 -31.725 -0.925978 23.4175 -5.35919 8.0153 8.00667 26.4163 15.0391 -52.8052 3.079 2.26392 31.384 3.33211 -13.8962 -8.99813 -16.1082 -7.32677 10.2347 14.6448 -1.59175 2.74997 3.51982 -2.65932 4.4805 5.73282 -0.341231 -0.308727 -0.399251 -0.341627 -0.315584 -0.397743 -6.51316 -5.88925 -7.0093 0.567786 -10.6859 22.5708 67.9014 -3.21916 51.4389 23.3743 -60.4667 14.9603 15.5444 -15.5857 -18.2974 28.184 10.7294 19.1592 7.49325e-15 5.86415e-15 -10 1.08806e-14 6.75868e-15 -10 -1.27222e-14 -1.59028e-15 4.77083e-15 19.9818 0.871897 2.3964 24 3.47873e-15 -0 20 -5.1684e-15 2.06736e-14 -1.27222e-14 -1.59028e-15 4.77083e-15 20 2.38542e-15 -0 24 -2.18663e-15 -7.95139e-15 20 3.97569e-15 1.59028e-14 -1.27222e-14 -1.59028e-15 4.77083e-15 19.9748 -1.02565 -2.81938 24 -9.93923e-16 6.36111e-15 20 1.27222e-14 1.90833e-14 -1.27222e-14 -1.59028e-15 4.77083e-15 19.7815 -3.00948 -8.30515 24 3.57812e-15 3.18055e-15 20 -2.38542e-15 6.36111e-15 7.8062 -11.511 -29.2879 -46.8868 25.6361 -66.8919 14.8815 -62.2692 14.1965 -27.0665 -17.7533 9.93466 -28.184 10.7294 -19.1592 -2.10798e-15 -6.36111e-15 10 -1.55873e-14 -3.18055e-15 10 -3.18055e-15 -3.18055e-15 -3.18055e-15 -19.9818 0.871897 -2.3964 -24 4.77083e-15 -1.90833e-14 -20 -1.59028e-15 -1.59028e-14 -3.18055e-15 -3.18055e-15 -3.18055e-15 -20 3.18055e-15 1.27222e-14 -24 4.37326e-15 -0 -20 5.56597e-15 -1.27222e-14 -3.18055e-15 -3.18055e-15 -3.18055e-15 -19.9748 -1.02565 2.81938 -24 -5.56597e-15 -6.36111e-15 -20 -3.18055e-15 -6.36111e-15 -3.18055e-15 -3.18055e-15 -3.18055e-15 -19.7815 -3.00948 8.30515 -24 1.09829e-14 -9.54166e-15 -20 -6.36111e-15 1.90833e-14 
377.744 88.2609 174.371 30.0859 12.1485 -70.7482 -26.1647 -58.7061 -31.5734 -0.956656 23.3791 -5.2907 8.03639 8.00292 26.3507 15.171 -52.7552 3.23605 2.18052 31.4415 3.40231 -13.8793 -9.04543 -16.2094 -7.26931 10.2201 14.5317 -1.57945 2.74175 3.49246 -2.63928 4.46659 5.6903 -0.344158 -0.308728 -0.38977 -0.344539 -0.313129 -0.388266 -6.56163 -5.84527 -6.84159 0.57814 -10.4675 22.4641 68.0165 -3.38584 51.3312 24.8824 -60.6233 16.6233 15.5252 -15.6147 -18.1919 28.184 10.7294 19.1592 2.03329e-14 5.41688e-15 -10 2.1974e-14 5.56597e-15 -10 3.18055e-15 4.77083e-15 -1.59028e-15 19.9818 0.871897 2.3964 24 9.34288e-15 3.49861e-14 20 1.15295e-14 6.83819e-14 3.18055e-15 4.77083e-15 -1.59028e-15 20 7.95139e-16 -3.18055e-15 24 1.59028e-14 2.06736e-14 20 1.43125e-14 7.15625e-14 3.18055e-15 4.77083e-15 -1.59028e-15 19.9748 -1.02565 -2.81938 24 7.7526e-15 2.8625e-14 20 1.11319e-14 6.36111e-14 3.18055e-15 4.77083e-15 -1.59028e-15 19.7815 -3.00948 -8.30515 24 -2.38542e-15 1.90833e-14 20 1.03368e-14 4.13472e-14 7.80134 -11.4988 -29.3969 -46.8164 25.6909 -66.9535 14.9378 -61.4523 14.1951 -27.1906 -18.8359 9.4472 -28.184 10.7294 -19.1592 -6.45924e-15 0 10 -1.23577e-14 -3.18055e-15 10 -1.27222e-14 0 -6.36111e-15 -19.9818 0.871897 -2.3964 -24 -2.38542e-15 -1.27222e-14 -20 -5.56597e-15 9.54166e-15 -1.27222e-14 0 -6.36111e-15 -20 -6.36111e-15 9.54166e-15 -24 -2.78299e-15 -3.18055e-15 -20 1.59028e-15 3.18055e-15 -1.27222e-14 0 -6.36111e-15 -19.9748 -1.02565 2.81938 -24 -1.59028e-15 -0 -20 -4.77083e-15 1.59028e-14 -1.27222e-14 0 -6.36111e-15 -19.7815 -3.00948 8.30515 -24 7.05686e-15 6.36111e-15 -20 -3.18055e-15 -1.27222e-14 
377.732 88.2609 174.383 30.054 12.1283 -70.8042 -25.9895 -58.6771 -31.368 -0.988273 23.3321 -5.23058 8.06298 8.00004 26.2828 15.292 -52.6948 3.38748 2.09084 31.4975 3.4792 -13.8648 -9.09428 -16.2953 -7.21357 10.207 14.4149 -1.56758 2.73387 3.46398 -2.61994 4.45321 5.64584 -0.347233 -0.308728 -0.379573 -0.347603 -0.310996 -0.378074 -6.62368 -5.79376 -6.66134 0.586014 -10.2568 22.3703 68.1646 -3.58589 51.208 26.491 -60.8135 18.4673 15.4019 -15.548 -18.2254 28.184 10.7294 19.1592 -4.93452e-15 8.64713e-15 -10 2.87665e-15 7.15625e-15 -10 -3.18055e-15 4.77083e-15 1.59028e-15 19.9818 0.871897 2.3964 24 -7.25564e-15 -3.33958e-14 20 -7.95139e-16 -1.74931e-14 -3.18055e-15 4.77083e-15 1.59028e-15 20 -1.59028e-15 -9.54166e-15 24 3.97569e-16 -3.18055e-14 20 -8.74653e-15 -3.18055e-15 -3.18055e-15 4.77083e-15 1.59028e-15 19.9748 -1.02565 -2.81938 24 1.98785e-16 -1.27222e-14 20 4.77083e-15 1.43125e-14 -3.18055e-15 4.77083e-15 1.59028e-15 19.7815 -3.00948 -8.30515 24 3.57812e-15 -6.36111e-15 20 -7.95139e-16 -9.54166e-15 7.75673 -11.4249 -29.2917 -46.6062 25.9032 -67.2044 15.442 -61.3491 14.6239 -27.2287 -19.1958 9.28245 -28.184 10.7294 -19.1592 -1.13037e-14 0 10 -1.50265e-14 -6.36111e-15 10 -3.18055e-15 6.36111e-15 -0 -19.9818 0.871897 -2.3964 -24 -1.59028e-15 -1.90833e-14 -20 -3.18055e-15 6.36111e-15 -3.18055e-15 6.36111e-15 -0 -20 3.18055e-15 1.59028e-14 -24 -1.98785e-15 -6.36111e-15 -20 5.56597e-15 -9.54166e-15 -3.18055e-15 6.36111e-15 -0 -19.9748 -1.02565 2.81938 -24 6.36111e-15 9.54166e-15 -20 -6.36111e-15 6.36111e-15 -3.18055e-15 6.36111e-15 -0 -19.7815 -3.00948 8.30515 -24 1.59028e-15 6.36111e-15 -20 0 -0 
